<mxfile host="65bd71144e">
    <diagram id="MLWCeia3NfbJ4Pwm36SF" name="Page-1">
        <mxGraphModel dx="1500" dy="734" grid="1" gridSize="10" guides="1" tooltips="1" connect="1" arrows="1" fold="1" page="1" pageScale="1" pageWidth="827" pageHeight="1169" math="0" shadow="0">
            <root>
                <mxCell id="0"/>
                <mxCell id="1" parent="0"/>
                <mxCell id="2" value="&lt;b&gt;Playwright Fixtures&lt;/b&gt;&amp;nbsp;&lt;br&gt;Out of the box test/expect library functionality" style="rounded=0;whiteSpace=wrap;html=1;" parent="1" vertex="1">
                    <mxGeometry x="374" y="50" width="136" height="70" as="geometry"/>
                </mxCell>
                <mxCell id="3" value="&lt;b&gt;Base Fixtures&lt;/b&gt;&lt;br&gt;- Adds functionality relevant to all tests (e.g. test scenario name syntax validation)" style="rounded=0;whiteSpace=wrap;html=1;" parent="1" vertex="1">
                    <mxGeometry x="360" y="160" width="160" height="90" as="geometry"/>
                </mxCell>
                <mxCell id="5" value="" style="endArrow=classic;html=1;entryX=0.5;entryY=0;entryDx=0;entryDy=0;exitX=0.5;exitY=1;exitDx=0;exitDy=0;" parent="1" source="2" target="3" edge="1">
                    <mxGeometry relative="1" as="geometry">
                        <mxPoint x="380" y="120" as="sourcePoint"/>
                        <mxPoint x="480" y="120" as="targetPoint"/>
                    </mxGeometry>
                </mxCell>
                <mxCell id="6" value="Extended by" style="edgeLabel;resizable=0;html=1;align=center;verticalAlign=middle;" parent="5" connectable="0" vertex="1">
                    <mxGeometry relative="1" as="geometry"/>
                </mxCell>
                <mxCell id="7" value="&lt;b&gt;Api Fixtures&lt;/b&gt;&lt;br&gt;- Adds functionality specific to API tests (e.g. pre-test hooks or other setup abstraction)" style="rounded=0;whiteSpace=wrap;html=1;" parent="1" vertex="1">
                    <mxGeometry x="230" y="325" width="150" height="90" as="geometry"/>
                </mxCell>
                <mxCell id="8" value="" style="endArrow=classic;html=1;entryX=0.5;entryY=0;entryDx=0;entryDy=0;exitX=0;exitY=1;exitDx=0;exitDy=0;" parent="1" source="3" target="7" edge="1">
                    <mxGeometry relative="1" as="geometry">
                        <mxPoint x="414" y="240" as="sourcePoint"/>
                        <mxPoint x="424" y="190" as="targetPoint"/>
                    </mxGeometry>
                </mxCell>
                <mxCell id="9" value="Extended by" style="edgeLabel;resizable=0;html=1;align=center;verticalAlign=middle;" parent="8" connectable="0" vertex="1">
                    <mxGeometry relative="1" as="geometry"/>
                </mxCell>
                <mxCell id="15" value="&lt;h1&gt;Fixtures Hierarchy&lt;/h1&gt;&lt;div&gt;&lt;p dir=&quot;auto&quot;&gt;Playwright offers the ability to extend it's 'fixtures', i.e. to add to or overwrite out-of-the-box Playwright test and assertion behaviour.&lt;/p&gt;&lt;p dir=&quot;auto&quot;&gt;In this test framework, we have created 'base fixtures'. This file is for additional or modified Playwright behaviour we want to use across all tests. For example, extending the test fixture to include test name syntax validation, which is relevant to all tests.&lt;/p&gt;&lt;p dir=&quot;auto&quot;&gt;The base fixtures are extended by the UI fixtures and the API fixtures. Each of these contain the extended functionality of the base-fixtures, as well as additional functionality specific to those types of tests. For example, the API fixtures may contain a function that retrieves a bearer token needed as part of tests and the UI fixtures provides a mechanism of instantiating the pages outside of the tests themselves, allowing for cleaner tests.&lt;/p&gt;&lt;p dir=&quot;auto&quot;&gt;These fixtures are then imported into the test spec files - instead of importing from Playwright itself. All tests then have access to the functionality of their respective fixtures, the base fixtures, and the core Playwright fixtures.&lt;br&gt;&lt;/p&gt;&lt;/div&gt;" style="text;html=1;strokeColor=none;fillColor=none;spacing=5;spacingTop=-20;whiteSpace=wrap;overflow=hidden;rounded=0;" parent="1" vertex="1">
                    <mxGeometry x="-120" y="40" width="280" height="450" as="geometry"/>
                </mxCell>
                <mxCell id="16" value="&lt;b&gt;UI Fixtures&lt;/b&gt;&lt;br&gt;- Specifically for instantiating pages via fixtures, avoiding the need to explicitly do so in tests (e.g. avoiding the need for `const homePage = new HomePage(page)` in test specs.&amp;nbsp;" style="rounded=0;whiteSpace=wrap;html=1;" parent="1" vertex="1">
                    <mxGeometry x="480" y="320" width="203" height="120" as="geometry"/>
                </mxCell>
                <mxCell id="17" value="" style="endArrow=classic;html=1;entryX=0.5;entryY=0;entryDx=0;entryDy=0;exitX=1;exitY=1;exitDx=0;exitDy=0;" parent="1" target="16" edge="1" source="3">
                    <mxGeometry relative="1" as="geometry">
                        <mxPoint x="530" y="250" as="sourcePoint"/>
                        <mxPoint x="467" y="190" as="targetPoint"/>
                    </mxGeometry>
                </mxCell>
                <mxCell id="18" value="Extended by" style="edgeLabel;resizable=0;html=1;align=center;verticalAlign=middle;" parent="17" connectable="0" vertex="1">
                    <mxGeometry relative="1" as="geometry"/>
                </mxCell>
                <mxCell id="19" value="UI tests" style="rounded=0;whiteSpace=wrap;html=1;" parent="1" vertex="1">
                    <mxGeometry x="600" y="510" width="120" height="60" as="geometry"/>
                </mxCell>
                <mxCell id="20" value="" style="endArrow=classic;html=1;entryX=0.5;entryY=0;entryDx=0;entryDy=0;exitX=0.5;exitY=1;exitDx=0;exitDy=0;" parent="1" source="16" target="19" edge="1">
                    <mxGeometry relative="1" as="geometry">
                        <mxPoint x="612" y="430" as="sourcePoint"/>
                        <mxPoint x="587" y="340" as="targetPoint"/>
                    </mxGeometry>
                </mxCell>
                <mxCell id="21" value="Extended by" style="edgeLabel;resizable=0;html=1;align=center;verticalAlign=middle;" parent="20" connectable="0" vertex="1">
                    <mxGeometry relative="1" as="geometry"/>
                </mxCell>
                <mxCell id="22" value="API tests" style="rounded=0;whiteSpace=wrap;html=1;" parent="1" vertex="1">
                    <mxGeometry x="120" y="510" width="120" height="60" as="geometry"/>
                </mxCell>
                <mxCell id="23" value="" style="endArrow=classic;html=1;entryX=0.5;entryY=0;entryDx=0;entryDy=0;exitX=0.25;exitY=1;exitDx=0;exitDy=0;" parent="1" source="7" target="22" edge="1">
                    <mxGeometry relative="1" as="geometry">
                        <mxPoint x="320" y="450" as="sourcePoint"/>
                        <mxPoint x="170" y="460" as="targetPoint"/>
                    </mxGeometry>
                </mxCell>
                <mxCell id="24" value="Extended by" style="edgeLabel;resizable=0;html=1;align=center;verticalAlign=middle;" parent="23" connectable="0" vertex="1">
                    <mxGeometry relative="1" as="geometry"/>
                </mxCell>
            </root>
        </mxGraphModel>
    </diagram>
</mxfile>